<?xml version="1.0" encoding="UTF-8" standalone="no"?>
<!-- Created with Inkscape (http://www.inkscape.org/) -->

<svg
   xmlns:dc="http://purl.org/dc/elements/1.1/"
   xmlns:cc="http://creativecommons.org/ns#"
   xmlns:rdf="http://www.w3.org/1999/02/22-rdf-syntax-ns#"
   xmlns:svg="http://www.w3.org/2000/svg"
   xmlns="http://www.w3.org/2000/svg"
   xmlns:sodipodi="http://sodipodi.sourceforge.net/DTD/sodipodi-0.dtd"
   xmlns:inkscape="http://www.inkscape.org/namespaces/inkscape"
   id="svg3004"
   version="1.1"
   inkscape:version="0.48.4 r9939"
   width="200"
   height="180"
   xml:space="preserve"
   sodipodi:docname="echo-nest-logo.svg"><metadata
     id="metadata3010"><rdf:RDF><cc:Work
         rdf:about=""><dc:format>image/svg+xml</dc:format><dc:type
           rdf:resource="http://purl.org/dc/dcmitype/StillImage" /><dc:title></dc:title></cc:Work></rdf:RDF></metadata><defs
     id="defs3008" /><sodipodi:namedview
     pagecolor="#ffffff"
     bordercolor="#666666"
     borderopacity="1"
     objecttolerance="10"
     gridtolerance="10"
     guidetolerance="10"
     inkscape:pageopacity="0"
     inkscape:pageshadow="2"
     inkscape:window-width="1241"
     inkscape:window-height="806"
     id="namedview3006"
     showgrid="false"
     inkscape:zoom="2.5857143"
     inkscape:cx="86.557205"
     inkscape:cy="108.62721"
     inkscape:window-x="2168"
     inkscape:window-y="99"
     inkscape:window-maximized="0"
     inkscape:current-layer="g3014" /><g
     id="g3012"
     inkscape:groupmode="layer"
     inkscape:label="ink_ext_XXXXXX"
     transform="matrix(1.25,0,0,-1.25,0,180)"><g
       id="g3014"
       transform="scale(0.1,0.1)"><g
         id="g3332"
         transform="matrix(0.84984902,0,0,0.84984902,-4833.6912,-3745.4392)"><path
           inkscape:connector-curvature="0"
           id="path3070"
           style="fill:#50ade5;fill-opacity:1;fill-rule:nonzero;stroke:none"
           d="m 7031.2614,5419.6889 c -0.085,233.7369 -189.5875,423.2225 -423.3584,423.2225 -233.7369,0 -423.2395,-189.4856 -423.3244,-423.2225 l 169.3468,0 c 0.068,140.2251 113.7525,253.8588 253.9776,253.8588 140.2422,0 253.9098,-113.6337 253.9947,-253.8588 l 169.3637,0" /><path
           inkscape:connector-curvature="0"
           id="path3072"
           style="fill:#666a6f;fill-opacity:1;fill-rule:nonzero;stroke:none"
           d="m 7285.2731,5419.553 c -0.017,374.0979 -303.2552,677.3531 -677.3701,677.3531 -374.0979,0 -677.353,-303.2552 -677.353,-677.37 0,-374.081 303.2551,-677.3361 677.353,-677.3361 l 0,169.3298 c -280.5522,0 -508.0063,227.4371 -508.0063,508.0063 0,280.5861 227.4541,508.0232 508.0063,508.0232 280.5692,0 508.0233,-227.4371 508.0233,-508.0063 l 169.3468,0" /><g
           transform="matrix(0.64786462,0,0,0.64786462,2315.5444,1655.4344)"
           id="g3220"><path
             d="m 7999.09,4377.49 0,207.26 101.38,0 0,45.05 -101.38,0 0,88.31 -49.55,-18.68 0,-336.21 c 0,-77.34 49.55,-93.86 87.1,-93.86 24.79,0 48.82,4.5 66.84,12.76 l -2.26,45.81 c -15.02,-8.26 -33.79,-13.52 -51.06,-13.52 -30.79,0 -51.07,10.51 -51.07,63.08"
             style="fill:#50ade5;fill-opacity:1;fill-rule:nonzero;stroke:none"
             id="path3074"
             inkscape:connector-curvature="0" /><path
             d="m 7217.59,4269.36 49.57,0 0,223.02 c 0,87.11 -61.45,138.69 -150.8,138.69 -97.12,0 -150.34,-62 -150.34,-136.93 l 0,-224.78 49.57,0 0,204.87 c 0,107.6 91.63,109.77 102.14,109.77 73.6,0 99.86,-39.59 99.86,-107.83 l 0,-206.81"
             style="fill:#50ade5;fill-opacity:1;fill-rule:nonzero;stroke:none"
             id="path3076"
             inkscape:connector-curvature="0" /><path
             d="m 7909.72,4571.9 c -22.83,46.4 -69.22,63.89 -118.66,63.89 -66.93,0 -131.59,-33.47 -131.59,-107.24 0,-67.69 66.94,-87.47 91.28,-93.55 l 48.68,-11.42 c 37.27,-9.12 67.7,-21.29 67.7,-57.04 0,-41.07 -42.6,-59.32 -83.66,-59.32 -41.85,0 -73.03,21.3 -93.57,53.23 l -43.35,-29.66 c 33.47,-50.19 82.91,-69.21 136.92,-69.21 69.21,0 138.42,31.95 138.42,109.52 0,50.21 -37.27,85.95 -86.7,97.37 l -50.97,12.16 c -46.4,10.65 -69.97,22.82 -69.97,56.28 0,38.03 38.79,53.25 73.78,53.25 36.5,0 61.6,-19.02 76.81,-47.91 l 44.88,29.65"
             style="fill:#50ade5;fill-opacity:1;fill-rule:nonzero;stroke:none"
             id="path3078"
             inkscape:connector-curvature="0" /><path
             d="m 7340.52,4484.44 c 0,18.31 28.23,114.43 128.16,114.43 67.9,0 122.06,-51.87 122.06,-114.43 l -250.22,0 m 0,-41.2 296,0 0,32.04 c 0,81.63 -57.21,164.79 -165.54,164.79 -103,0 -176.23,-79.34 -176.23,-184.62 0,-108.92 70.74,-185.85 178.01,-186.09 l 0,41.28 c -105.65,0.82 -132.24,94.62 -132.24,132.6 l 0,0"
             style="fill:#50ade5;fill-opacity:1;fill-rule:nonzero;stroke:none"
             id="path3080"
             inkscape:connector-curvature="0" /><path
             d="m 6159.75,4574.8 c -35.01,38.82 -86,55.57 -132.44,55.57 -110.36,0 -198.65,-76.87 -198.65,-191.81 0,-114.93 88.29,-191.8 198.65,-191.8 31.97,0 94.39,13.7 131.68,50.99 l -60.88,65.46 c -16.75,-22.08 -42.64,-34.25 -70.8,-34.25 -66.98,0 -107.31,52.52 -107.31,109.6 0,57.08 40.33,109.6 107.31,109.6 24.36,0 47.96,-14.46 69.27,-36.53 l 63.17,63.17"
             style="fill:#666a6f;fill-opacity:1;fill-rule:nonzero;stroke:none"
             id="path3082"
             inkscape:connector-curvature="0" /><path
             d="m 6275.39,4718.93 -90.62,-18.68 0,-430.89 90.62,0 0,197.85 c 0,48.33 23.41,92.13 83.07,92.13 63.43,0 66.45,-66.46 66.45,-106.48 l 0,-183.5 90.63,0 0,228.8 c 0,74.02 -34.74,142.73 -132.16,142.73 -55.88,0 -92.13,-29.45 -106.48,-59.66 l -1.51,0 0,137.7"
             style="fill:#666a6f;fill-opacity:1;fill-rule:nonzero;stroke:none"
             id="path3084"
             inkscape:connector-curvature="0" /><path
             d="m 6848.76,4440.33 c 0,-56.65 -40.02,-108.75 -106.47,-108.75 -66.46,0 -106.48,52.1 -106.48,108.75 0,56.63 40.02,108.74 106.48,108.74 66.45,0 106.47,-52.11 106.47,-108.74 m 90.62,0 c 0,114.03 -87.59,190.29 -197.09,190.29 -109.5,0 -197.09,-76.26 -197.09,-190.29 0,-114.03 87.59,-190.31 197.09,-190.31 109.5,0 197.09,76.28 197.09,190.31 l 0,0"
             style="fill:#666a6f;fill-opacity:1;fill-rule:nonzero;stroke:none"
             id="path3086"
             inkscape:connector-curvature="0" /><path
             d="m 5708.69,4474.74 -187.67,0 c 6.87,52.63 40.43,86.97 94.6,86.97 57.21,0 92.3,-33.58 93.07,-86.97 m 91.54,-68.67 0,25.18 c 0,127.4 -69.42,199.11 -171.65,199.11 -110.61,0 -199.11,-77.05 -199.11,-192.24 0,-111.58 83.24,-186.7 188.96,-191.36 l 0,72.51 c -50.62,0.46 -91.36,33.02 -97.41,86.8 l 279.21,0 0,0"
             style="fill:#666a6f;fill-opacity:1;fill-rule:nonzero;stroke:none"
             id="path3088"
             inkscape:connector-curvature="0" /><path
             d="m 5252.3,4342.93 23.53,0 0,-25.81 63.39,0 c 5.95,0 9.9,1 11.91,2.98 1.96,1.99 2.96,5.95 2.96,11.88 0,2 -0.09,3.9 -0.26,5.71 -0.15,1.8 -0.39,3.55 -0.74,5.24 l 27.24,0 c 0.5,-3.03 0.84,-6.33 1.02,-9.95 0.15,-3.62 0.24,-7.19 0.24,-10.64 0,-5.47 -0.4,-10.61 -1.14,-15.49 -0.72,-4.87 -2.18,-9.15 -4.32,-12.88 -2.16,-3.72 -5.19,-6.65 -9.15,-8.8 -3.97,-2.12 -9.19,-3.21 -15.59,-3.21 l -75.56,0 0,-21.31 -23.53,0 0,21.31 -29.28,0 -9.11,35.16 38.39,0 0,25.81"
             style="fill:#666a6f;fill-opacity:1;fill-rule:nonzero;stroke:none"
             id="path3090"
             inkscape:connector-curvature="0" /><path
             d="m 5212.61,4392.42 57.51,0 0,0.73 c -7.44,4.49 -12.83,10.16 -16.21,17.1 -3.39,6.91 -5.08,13.72 -5.08,20.31 0,9.4 1.27,17.12 3.85,23.19 2.54,5.99 6.09,10.75 10.64,14.21 4.53,3.47 10.07,5.9 16.58,7.3 6.54,1.4 13.76,2.11 21.68,2.11 l 78.75,0 0,-35.19 -72.3,0 c -10.58,0 -18.48,-1.63 -23.65,-4.93 -5.22,-3.3 -7.82,-9.14 -7.82,-17.56 0,-9.6 2.85,-16.56 8.56,-20.82 5.7,-4.3 15.07,-6.45 28.1,-6.45 l 67.11,0 0,-35.18 -158.61,0 -9.11,35.18"
             style="fill:#666a6f;fill-opacity:1;fill-rule:nonzero;stroke:none"
             id="path3092"
             inkscape:connector-curvature="0" /><path
             d="m 5282.29,4569.14 c -4.65,-4.21 -6.96,-10.61 -6.96,-19.22 0,-5.61 0.93,-10.24 2.85,-13.98 1.89,-3.68 4.24,-6.67 7.05,-8.93 2.84,-2.21 5.77,-3.79 8.93,-4.69 3.13,-0.9 5.94,-1.44 8.42,-1.61 l 0,57.21 c -8.92,-1.63 -15.69,-4.58 -20.29,-8.78 z m 67.34,-39.77 c 5.12,5.28 7.66,12.89 7.66,22.8 0,7.09 -1.75,13.2 -5.31,18.31 -3.54,5.13 -7.3,8.27 -11.28,9.42 l 0,30.98 c 15.37,-4.94 26.35,-12.57 32.93,-22.79 6.62,-10.25 9.92,-22.62 9.92,-37.13 0,-10.1 -1.58,-19.18 -4.82,-27.28 -3.22,-8.07 -7.79,-14.93 -13.75,-20.56 -5.95,-5.59 -13.05,-9.98 -21.29,-12.98 -8.27,-3.07 -17.34,-4.61 -27.23,-4.61 -9.6,0 -18.53,1.6 -26.75,4.72 -8.26,3.15 -15.41,7.58 -21.44,13.37 -6.04,5.78 -10.78,12.69 -14.25,20.71 -3.47,7.99 -5.19,16.87 -5.19,26.63 0,10.86 2.09,20.37 6.32,28.46 4.21,8.08 9.85,14.73 16.96,19.92 7.07,5.19 15.18,8.97 24.28,11.27 9.06,2.31 18.57,3.13 28.47,2.48 l 0,-92.38 c 11.41,0.5 19.63,3.4 24.77,8.66"
             style="fill:#666a6f;fill-opacity:1;fill-rule:nonzero;stroke:none"
             id="path3094"
             inkscape:connector-curvature="0" /></g></g></g></g></svg>