<svg xmlns:rdf="http://www.w3.org/1999/02/22-rdf-syntax-ns#" xmlns="http://www.w3.org/2000/svg" version="1.1" xmlns:cc="http://creativecommons.org/ns#" xmlns:xlink="http://www.w3.org/1999/xlink" viewBox="0 0 573 573" xmlns:dc="http://purl.org/dc/elements/1.1/">
 <defs>
  <filter id="c" style="color-interpolation-filters:sRGB">
   <feFlood flood-opacity="0" result="flood" flood-color="rgb(0,0,0)"/>
   <feComposite operator="in" result="composite1" in2="SourceGraphic" in="flood"/>
   <feGaussianBlur stdDeviation="10" result="blur"/>
   <feOffset result="offset" dx="15" dy="0"/>
   <feComposite operator="over" result="composite2" in2="offset" in="SourceGraphic"/>
  </filter>
 </defs>
 <circle stroke-width="1.6623" transform="matrix(-4.0753 4.0753 -4.0753 -4.0753 3859 1202.3)" stroke="#fff" filter="url(#c)" cy="0" cx="0" r="0" fill="none"/>
 <g transform="translate(0 .20684)" display="none">
  <g>
   <path d="m445.06 155.15s-5.444-11.871-10.582-17.085c-5.1377-5.2138-20.158-13.655-20.158-13.655s-60.945 75.468-89.851 105.44c-28.906 29.973-102.28 102.78-151.23 144.56-27.946 23.856-47.406 30.946-47.406 30.946s6.6057 17.632 13.452 24.595c6.8465 6.9634 26.641 16.797 26.641 16.797s28.635-46.57 74.177-93.404 204.95-198.2 204.95-198.2z" fill="#fff"/>
   <path id="a" d="m138.07 118.76c65.848 35.368 98.358 103.92 143.1 166.83 16.97-12.01 49.224-125.24 7.6107-166.85-41.62-41.614-109.1-41.592-150.71 0.02zm133.48-3.7361c-181.66 304.12-90.831 152.06 0 0z" fill="#fff"/>
   <use xlink:href="#a" transform="matrix(-1 0 0 -1 570.89 571.16)" height="100%" width="100%" y="0" x="0" fill="#ffffff"/>
  </g>
  <g>
   <path d="m445.06 155.15s-5.444-11.871-10.582-17.085c-5.1377-5.2138-20.158-13.655-20.158-13.655s-60.945 75.468-89.851 105.44c-28.906 29.973-102.28 102.78-151.23 144.56-27.946 23.856-47.406 30.946-47.406 30.946s6.6057 17.632 13.452 24.595c6.8465 6.9634 26.641 16.797 26.641 16.797s28.635-46.57 74.177-93.404 204.95-198.2 204.95-198.2z" fill="#fff"/>
   <path d="m138.07 118.76c65.848 35.368 98.358 103.92 143.1 166.83 16.97-12.01 49.224-125.24 7.6107-166.85-41.62-41.614-109.1-41.592-150.71 0.02zm133.48-3.7361c-181.66 304.12-90.831 152.06 0 0z" fill="#fff"/>
   <use xlink:href="#a" transform="matrix(-1 0 0 -1 570.89 571.16)" height="100%" width="100%" y="0" x="0" fill="#ffffff"/>
  </g>
  <path d="m214.02 88.135c-27.924-0.13022-55.719 11.354-75.354 31.221 19.78 19.321 39.082 39.16 58.803 58.523 10.378 5.8932 21.018 11.96 26.784 22.95 20.167 28.108 37.748 57.975 58.103 85.953 19.486 19.326 38.898 38.728 58.217 58.219 13.735-14.978 17.696-35.814 22.562-54.887 6.8043-32.279 9.5428-67.822-4.9764-98.439-10.445-17.157-27.063-29.245-40.442-43.947-20.244-19.426-38.405-43.164-65.867-52.678-12.054-4.5639-24.937-6.9535-37.83-6.9147z" fill-opacity=".23077"/>
 </g>
 <g transform="translate(0 .20684)">
  <circle stroke-width="20" transform="rotate(135)" stroke="#fff" cy="-405.02" cx=".0011217" r="275.35" fill="#bba0e5"/>
  <g>
   <path d="m138.05 428.79 121.71 121.44c1.5433 1.031 70.814 8.6195 130.94-22.488 34.34-17.767 60.935-34.855 86.344-62.501 25.942-28.227 45.669-60.79 54.174-79.627 28.159-62.369 19.15-132.08 19.15-132.08l-115.61-116.64z" fill-rule="evenodd" fill-opacity=".14793"/>
   <path d="m138.07 118.93 150.69 0.35304 92.44 96.667-50.602 135.22 27.871 101.07 73.573-0.2061 29.121 27.821s-31.261 31.062-59.755 43.427c-28.493 12.364-37.798 16.617-37.798 16.617l-80.294-85.984 13.926-156.5z" fill-rule="evenodd" fill-opacity=".14793"/>
   <g fill-opacity=".15976" transform="translate(2,2)">
    <path d="m213.42 87.748c-27.273 0.0057-54.545 10.414-75.352 31.221 63.353 34.028 95.85 98.77 138.06 159.66-32.728 32.178-72.509 70.056-102.89 95.992-27.946 23.856-47.406 30.947-47.406 30.947s6.6066 17.632 13.453 24.596c6.8465 6.9634 26.641 16.797 26.641 16.797s28.636-46.57 74.178-93.404c7.727-7.9462 18.9-19.053 31.848-31.768-12.175 40.159-18.358 102.32 10.164 130.84 41.614 41.614 109.09 41.592 150.71-0.0215-62-33.31-94.44-96.02-135.36-155.74 63.49-61.67 147.59-141.52 147.59-141.52s-5.4443-11.872-10.582-17.086c-5.1377-5.2138-20.158-13.654-20.158-13.654s-60.946 75.468-89.852 105.44c-7.1488 7.4126-17.048 17.471-28.594 29.006 14.009-39.161 23.735-109.28-7.0996-140.12-20.81-20.812-48.09-31.208-75.36-31.202z" fill-opacity=".15976" transform="translate(0 -.20684)"/>
   </g>
  </g>
  <g>
   <path d="m445.06 155.15s-5.444-11.871-10.582-17.085c-5.1377-5.2138-20.158-13.655-20.158-13.655s-60.945 75.468-89.851 105.44c-28.906 29.973-102.28 102.78-151.23 144.56-27.946 23.856-47.406 30.946-47.406 30.946s6.6057 17.632 13.452 24.595c6.8465 6.9634 26.641 16.797 26.641 16.797s28.635-46.57 74.177-93.404 204.95-198.2 204.95-198.2z" fill="#fff"/>
   <path id="b" d="m138.07 118.76c65.848 35.368 98.358 103.92 143.1 166.83 16.97-12.01 49.224-125.24 7.6107-166.85-41.62-41.614-109.1-41.592-150.71 0.02zm133.48-3.7361z" fill="#fff"/>
   <use xlink:href="#b" transform="matrix(-1 0 0 -1 570.89 571.16)" height="100%" width="100%" y="0" x="0" fill="#ffffff"/>
  </g>
 </g>
</svg>
