<?xml version="1.0" encoding="UTF-8" standalone="no"?>
<!-- Created with Inkscape (http://www.inkscape.org/) -->

<svg
   xmlns:dc="http://purl.org/dc/elements/1.1/"
   xmlns:cc="http://creativecommons.org/ns#"
   xmlns:rdf="http://www.w3.org/1999/02/22-rdf-syntax-ns#"
   xmlns:svg="http://www.w3.org/2000/svg"
   xmlns="http://www.w3.org/2000/svg"
   xmlns:sodipodi="http://sodipodi.sourceforge.net/DTD/sodipodi-0.dtd"
   xmlns:inkscape="http://www.inkscape.org/namespaces/inkscape"
   id="svg2"
   version="1.1"
   inkscape:version="0.48.4 r9939"
   width="533.75122"
   height="246.70876"
   xml:space="preserve"
   sodipodi:docname="pwrdByYT-black.eps"><metadata
     id="metadata8"><rdf:RDF><cc:Work
         rdf:about=""><dc:format>image/svg+xml</dc:format><dc:type
           rdf:resource="http://purl.org/dc/dcmitype/StillImage" /><dc:title></dc:title></cc:Work></rdf:RDF></metadata><defs
     id="defs6" /><sodipodi:namedview
     pagecolor="#ffffff"
     bordercolor="#666666"
     borderopacity="1"
     objecttolerance="10"
     gridtolerance="10"
     guidetolerance="10"
     inkscape:pageopacity="0"
     inkscape:pageshadow="2"
     inkscape:window-width="1920"
     inkscape:window-height="1041"
     id="namedview4"
     showgrid="false"
     fit-margin-top="0"
     fit-margin-left="0"
     fit-margin-right="0"
     fit-margin-bottom="0"
     inkscape:zoom="0.46737398"
     inkscape:cx="-80.819064"
     inkscape:cy="47.695255"
     inkscape:window-x="0"
     inkscape:window-y="0"
     inkscape:window-maximized="1"
     inkscape:current-layer="g10" /><g
     id="g10"
     inkscape:groupmode="layer"
     inkscape:label="ink_ext_XXXXXX"
     transform="matrix(1.25,0,0,-1.25,0,482.6025)"><path
       inkscape:connector-curvature="0"
       id="path46"
       style="fill:#ffffff;fill-opacity:1;fill-rule:nonzero;stroke:none"
       d="m 12.8168,346.904 c 5.2613,0 8.1152,4.534 8.1152,11.866 0,6.995 -2.9672,11.025 -8.1722,11.025 -3.24613,0 -5.81996,-1.68 -8.17074,-4.31 l 0,-14.328 c 2.35078,-2.743 5.03789,-4.253 8.22774,-4.253 m -8.22774,-14.273 -4.58906,0 0,40.242 4.08594,0 0.39101,-3.862 c 2.40586,2.631 5.54105,4.534 9.34685,4.534 7.0532,0 11.7543,-5.373 11.7543,-14.72 0,-9.962 -4.4781,-15.671 -11.6992,-15.671 -3.8609,0 -6.88281,1.846 -9.28984,4.421 l 0,-14.944" /><path
       inkscape:connector-curvature="0"
       id="path48"
       style="fill:#ffffff;fill-opacity:1;fill-rule:nonzero;stroke:none"
       d="m 45.2828,346.848 c 5.5973,0 9.1789,4.701 9.1789,11.865 0,6.66 -3.8058,11.082 -9.1789,11.082 -5.4293,0 -9.291,-4.422 -9.291,-11.082 0,-7.164 3.5258,-11.865 9.291,-11.865 m 0,26.697 c 8.0039,0 13.8809,-5.822 13.8809,-14.832 0,-9.571 -5.5977,-15.559 -13.8809,-15.559 -8.3961,0 -13.9922,5.988 -13.9922,15.559 0,9.01 5.9883,14.832 13.9922,14.832" /><path
       inkscape:connector-curvature="0"
       id="path50"
       style="fill:#ffffff;fill-opacity:1;fill-rule:nonzero;stroke:none"
       d="m 62.6371,372.873 4.757,0 7.668,-23.283 0.1121,0 6.9961,23.283 4.1418,0 7.0524,-23.283 0.1117,0 7.6118,23.283 4.645,0 -9.8498,-29.048 -4.6449,0 -6.9973,22.556 -0.1117,0 -6.9402,-22.556 -4.6461,0 -9.9059,29.048" /><path
       inkscape:connector-curvature="0"
       id="path52"
       style="fill:#ffffff;fill-opacity:1;fill-rule:nonzero;stroke:none"
       d="m 114.022,361.288 16.511,0 c 0.055,4.813 -1.959,8.73 -7.332,8.73 -4.701,0 -8.283,-3.301 -9.179,-8.73 m 9.066,12.313 c 8.172,0 11.922,-5.597 11.922,-12.984 0,-0.728 -0.112,-1.849 -0.223,-2.463 l -20.933,0 c 0.111,-7.109 3.302,-11.195 9.57,-11.195 3.135,0 6.158,1.176 8.508,2.744 l 2.07,-3.135 c -2.965,-2.128 -6.828,-3.47 -10.801,-3.47 -8.843,0 -13.992,5.877 -13.992,15.56 0,9.123 5.932,14.943 13.879,14.943" /><path
       inkscape:connector-curvature="0"
       id="path54"
       style="fill:#ffffff;fill-opacity:1;fill-rule:nonzero;stroke:none"
       d="m 142.345,372.873 4.198,0 0.392,-4.925 c 2.238,3.806 5.205,5.653 8.843,5.653 1.455,0 2.686,-0.224 3.694,-0.56 l -0.896,-4.365 c -1.007,0.391 -2.127,0.615 -3.414,0.615 -3.414,0 -5.989,-2.015 -8.171,-5.933 l 0,-19.533 -4.646,0 0,29.048" /><path
       inkscape:connector-curvature="0"
       id="path56"
       style="fill:#ffffff;fill-opacity:1;fill-rule:nonzero;stroke:none"
       d="m 166.695,361.288 16.511,0 c 0.055,4.813 -1.959,8.73 -7.332,8.73 -4.701,0 -8.283,-3.301 -9.179,-8.73 m 9.066,12.313 c 8.172,0 11.922,-5.597 11.922,-12.984 0,-0.728 -0.112,-1.849 -0.223,-2.463 l -20.933,0 c 0.112,-7.109 3.302,-11.195 9.57,-11.195 3.135,0 6.158,1.176 8.508,2.744 l 2.07,-3.135 c -2.965,-2.128 -6.828,-3.47 -10.801,-3.47 -8.843,0 -13.992,5.877 -13.992,15.56 0,9.123 5.932,14.943 13.879,14.943" /><path
       inkscape:connector-curvature="0"
       id="path58"
       style="fill:#ffffff;fill-opacity:1;fill-rule:nonzero;stroke:none"
       d="m 214.607,351.157 0,14.328 c -2.351,2.63 -4.98,4.31 -8.228,4.31 -5.148,0 -8.17,-4.03 -8.17,-11.026 0,-7.332 2.854,-11.865 8.17,-11.865 3.191,0 5.822,1.51 8.228,4.253 m -21.044,7.668 c 0,9.347 4.701,14.72 11.81,14.72 3.75,0 6.828,-1.903 9.234,-4.422 l 0,16.959 4.646,0 0,-42.257 -4.03,0 -0.448,3.862 c -2.462,-2.687 -5.484,-4.533 -9.458,-4.533 -7.276,0 -11.754,5.709 -11.754,15.671" /><path
       inkscape:connector-curvature="0"
       id="path60"
       style="fill:#ffffff;fill-opacity:1;fill-rule:nonzero;stroke:none"
       d="m 255.022,346.904 c 5.317,0 8.115,4.534 8.115,11.866 0,6.995 -2.966,11.025 -8.115,11.025 -3.246,0 -5.877,-1.68 -8.172,-4.31 l 0,-14.328 c 2.351,-2.743 4.982,-4.253 8.172,-4.253 m -12.817,39.178 4.645,0 0,-16.959 c 2.351,2.519 5.485,4.422 9.18,4.422 7.052,0 11.808,-5.373 11.808,-14.72 0,-9.962 -4.533,-15.671 -11.808,-15.671 -3.918,0 -6.997,1.846 -9.404,4.534 l -0.391,-3.863 -4.03,0 0,42.257" /><path
       inkscape:connector-curvature="0"
       id="path62"
       style="fill:#ffffff;fill-opacity:1;fill-rule:nonzero;stroke:none"
       d="m 275.958,335.934 c 2.127,0 3.526,0.784 4.535,3.47 l 1.79,4.59 -10.803,28.879 4.814,0 8.227,-22.947 0.114,0 8.003,22.947 4.702,0 -12.259,-33.805 c -2.069,-5.486 -5.037,-6.997 -8.955,-6.997 -1.791,0 -3.638,0.392 -5.037,0.951 l 1.344,3.75 c 1.12,-0.446 2.406,-0.838 3.525,-0.838" /><path
       inkscape:connector-curvature="0"
       id="path64"
       style="fill:#ffffff;fill-opacity:1;fill-rule:nonzero;stroke:none"
       d="m 82.1324,235.23 0,-45.338 -16.7922,0 0,45.338 c -1.5121,8.061 -4.8699,19.815 -10.2441,35.433 -3.5258,10.41 -7.2207,20.821 -10.7469,31.233 l 17.6321,0 11.9218,-43.996 11.4192,43.996 16.9597,0 -20.1496,-66.666" /><path
       inkscape:connector-curvature="0"
       id="path66"
       style="fill:#ffffff;fill-opacity:1;fill-rule:nonzero;stroke:none"
       d="m 135.351,249.168 c 0,7.726 -2.351,11.586 -7.221,11.586 -4.87,0 -7.22,-3.86 -7.22,-11.586 l 0,-35.096 c 0,-7.724 2.35,-11.587 7.22,-11.587 4.87,0 7.221,3.863 7.221,11.587 l 0,35.096 z m 10.411,-51.888 c -4.198,-5.709 -10.075,-8.565 -17.632,-8.565 -7.556,0 -13.433,2.856 -17.632,8.565 -3.19,4.198 -4.702,10.747 -4.702,19.646 l 0,29.22 c 0,8.899 1.512,15.449 4.702,19.647 4.199,5.708 10.076,8.563 17.632,8.563 7.557,0 13.434,-2.855 17.632,-8.563 3.191,-4.198 4.702,-10.748 4.702,-19.647 l 0,-29.22 c 0,-8.899 -1.511,-15.448 -4.702,-19.646" /><path
       inkscape:connector-curvature="0"
       id="path68"
       style="fill:#ffffff;fill-opacity:1;fill-rule:nonzero;stroke:none"
       d="m 191.271,189.892 0,9.066 c -6.045,-6.883 -11.754,-10.243 -17.296,-10.243 -4.87,0 -8.228,2.016 -9.739,6.215 -0.84,2.519 -1.344,6.548 -1.344,12.425 l 0,65.995 15.113,0 0,-61.46 c 0,-3.526 0,-5.374 0.168,-5.877 0.336,-2.351 1.511,-3.528 3.527,-3.528 3.022,0 6.213,2.351 9.571,7.054 l 0,63.811 15.113,0 0,-83.458 -15.113,0" /><path
       inkscape:connector-curvature="0"
       id="path70"
       style="fill:#ffffff;fill-opacity:1;fill-rule:nonzero;stroke:none"
       d="m 248.701,286.111 0,-96.219 -16.792,0 0,96.219 -17.8,0 0,15.785 52.728,0 0,-15.785 -18.136,0" /><path
       inkscape:connector-curvature="0"
       id="path72"
       style="fill:#ffffff;fill-opacity:1;fill-rule:nonzero;stroke:none"
       d="m 297.362,189.892 0,9.066 c -6.045,-6.883 -11.754,-10.243 -17.295,-10.243 -4.87,0 -8.228,2.016 -9.739,6.215 -0.84,2.519 -1.344,6.548 -1.344,12.425 l 0,65.995 15.113,0 0,-61.46 c 0,-3.526 0,-5.374 0.168,-5.877 0.336,-2.351 1.51,-3.528 3.527,-3.528 3.021,0 6.213,2.351 9.57,7.054 l 0,63.811 15.114,0 0,-83.458 -15.114,0" /><path
       inkscape:connector-curvature="0"
       id="path74"
       style="fill:#ffffff;fill-opacity:1;fill-rule:nonzero;stroke:none"
       d="m 354.793,249.336 c 0,7.558 -2.184,11.418 -6.55,11.418 -2.517,0 -5.038,-1.175 -7.555,-3.693 l 0,-50.882 c 2.517,-2.518 5.038,-3.694 7.555,-3.694 4.366,0 6.55,3.694 6.55,11.251 l 0,35.6 z m 13.602,-51.216 c -2.015,-6.214 -6.045,-9.405 -12.09,-9.405 -5.374,0 -10.579,3.023 -15.617,9.237 l 0,-8.06 -15.115,0 0,112.004 15.115,0 0,-36.606 c 4.87,6.044 10.075,9.067 15.617,9.067 6.045,0 10.075,-3.191 12.09,-9.404 1.006,-3.359 1.51,-8.9 1.51,-16.793 l 0,-33.248 c 0,-7.725 -0.504,-13.266 -1.51,-16.792" /><path
       inkscape:connector-curvature="0"
       id="path76"
       style="fill:#ffffff;fill-opacity:1;fill-rule:nonzero;stroke:none"
       d="m 411.888,249.168 c 0,7.726 -2.52,11.586 -7.557,11.586 -5.039,0 -7.557,-3.86 -7.557,-11.586 l 0,-7.724 15.114,0 0,7.724 z m 14.777,-42.316 c -0.504,-3.358 -1.68,-6.381 -3.527,-9.067 -4.198,-6.047 -10.41,-9.07 -18.303,-9.07 -7.893,0 -13.938,2.856 -18.305,8.565 -3.189,4.198 -4.869,10.747 -4.869,19.646 l 0,29.22 c 0,8.899 1.512,15.449 4.701,19.647 4.367,5.708 10.412,8.563 18.137,8.563 7.557,0 13.602,-2.855 17.799,-8.563 3.191,-4.198 4.703,-10.748 4.703,-19.647 l 0,-17.296 -30.227,0 0,-14.778 c 0,-7.724 2.518,-11.587 7.725,-11.587 3.693,0 5.877,2.016 6.717,6.046 0.168,0.841 0.336,4.198 0.336,10.243 l 15.449,0 0,-2.183 c 0,-4.869 -0.168,-8.228 -0.336,-9.739" /></g></svg>